<?xml version="1.0" encoding="UTF-8"?>
<svg id="Layer_1" xmlns="http://www.w3.org/2000/svg" version="1.1" viewBox="0 0 2000 2000">
  <defs>
    <style>
      .st0 {
        fill: #1a2b4c;
      }

      .st1 {
        fill: #fff;
      }

      .st2 {
        fill: #1abc9c;
      }
    </style>
  </defs>
  <rect class="st0" width="2000" height="2000"/>
  <g>
    <g>
      <path class="st2" d="M1207.83,824.53c-7.53-3.84-16.48-5.76-26.84-5.76h-46.49v96.43h46.49c10.36,0,19.31-1.92,26.84-5.76,7.53-3.84,13.36-9.36,17.49-16.55,4.12-7.2,6.19-15.83,6.19-25.91s-2.06-18.71-6.19-25.91c-4.13-7.2-9.96-12.71-17.49-16.55ZM1205.67,884.76c-1.87,4.17-4.8,7.05-8.78,8.64-3.98,1.58-9.28,2.37-15.9,2.37h-24.9v-57.57h24.9c6.62,0,11.92.79,15.9,2.37,3.98,1.58,6.91,4.44,8.78,8.56,1.87,4.13,2.81,10.07,2.81,17.85s-.94,13.6-2.81,17.77Z"/>
      <path class="st2" d="M1298.21,845.54c-5.23-2.59-11.87-3.89-19.93-3.89s-14.7,1.27-20.51,3.81c-5.81,2.54-10.29,6.09-13.46,10.65-3.17,4.56-4.75,9.81-4.75,15.76v.43h21.73v-.58c0-4.12,1.2-7,3.6-8.64,2.4-1.63,6.33-2.45,11.8-2.45,5.76,0,9.81.82,12.16,2.45,2.35,1.63,3.53,4.8,3.53,9.5v2.74l-30.94,3.16c-5.18.58-9.5,1.66-12.95,3.24-3.45,1.58-6.05,3.67-7.77,6.26-1.73,2.59-2.59,5.71-2.59,9.36,0,5.95,2.21,10.65,6.62,14.1,4.41,3.45,10.51,5.18,18.28,5.18s14.56-1.61,19.5-4.82c4.94-3.21,8.23-7.6,9.86-13.17h1.15v16.55h20.15v-42.31c0-6.33-1.27-11.83-3.81-16.48-2.54-4.65-6.43-8.28-11.66-10.87ZM1282.02,899.94c-3.36.96-7.63,1.44-12.81,1.44-3.17,0-5.52-.43-7.05-1.29-1.54-.86-2.3-2.25-2.3-4.17,0-1.73.6-3,1.8-3.81,1.2-.81,3.09-1.32,5.68-1.51l25.01-2.85c-.17,3.1-1.05,5.61-2.63,7.53-1.78,2.16-4.34,3.72-7.7,4.68Z"/>
      <path class="st2" d="M1352.11,829.13h-21.59v13.96h-11.37v17.85h11.37v28.21c0,9.12,2.4,15.74,7.2,19.86,4.8,4.13,11.42,6.19,19.86,6.19h17.85v-19.43h-12.95c-3.74,0-6.4-.6-7.99-1.8-1.58-1.2-2.37-3.62-2.37-7.27v-25.76h23.32v-17.85h-23.32v-13.96Z"/>
      <path class="st2" d="M1440.84,845.54c-5.23-2.59-11.87-3.89-19.93-3.89s-14.7,1.27-20.51,3.81c-5.81,2.54-10.29,6.09-13.46,10.65-3.17,4.56-4.75,9.81-4.75,15.76v.43h21.73v-.58c0-4.12,1.2-7,3.6-8.64,2.4-1.63,6.33-2.45,11.8-2.45,5.76,0,9.81.82,12.16,2.45,2.35,1.63,3.53,4.8,3.53,9.5v2.74l-30.94,3.16c-5.18.58-9.5,1.66-12.95,3.24-3.45,1.58-6.05,3.67-7.77,6.26-1.73,2.59-2.59,5.71-2.59,9.36,0,5.95,2.21,10.65,6.62,14.1,4.41,3.45,10.51,5.18,18.28,5.18s14.56-1.61,19.5-4.82c4.94-3.21,8.23-7.6,9.86-13.17h1.15v16.55h20.15v-42.31c0-6.33-1.27-11.83-3.81-16.48-2.54-4.65-6.43-8.28-11.66-10.87ZM1424.65,899.94c-3.36.96-7.63,1.44-12.81,1.44-3.17,0-5.52-.43-7.05-1.29-1.54-.86-2.3-2.25-2.3-4.17,0-1.73.6-3,1.8-3.81,1.2-.81,3.09-1.32,5.68-1.51l25.01-2.85c-.17,3.1-1.05,5.61-2.63,7.53-1.78,2.16-4.34,3.72-7.7,4.68Z"/>
      <g>
        <path class="st1" d="M1183.29,1004.27h32.63c-.18,3.75-1.01,6.73-2.48,8.92-1.68,2.5-4.68,4.25-9,5.25s-10.32,1.51-17.99,1.51c-7,0-12.64-.93-16.91-2.81-4.27-1.87-7.37-4.92-9.28-9.14-1.92-4.22-2.88-9.88-2.88-16.98s1.01-12.88,3.02-17.06c2.01-4.17,5.2-7.2,9.57-9.07,4.37-1.87,10.19-2.81,17.49-2.81,9.21,0,15.83,1.34,19.86,4.03,4.03,2.69,6.05,6.86,6.05,12.52v1.15h24.04v-1.15c0-7.77-2.01-14.41-6.05-19.93-4.03-5.52-9.74-9.79-17.13-12.81-7.39-3.02-16.12-4.53-26.19-4.53-11.04,0-20.56,2.04-28.57,6.12-8.01,4.08-14.18,9.84-18.49,17.27-4.32,7.44-6.48,16.19-6.48,26.27s1.92,18.83,5.76,26.27c3.84,7.44,9.33,13.19,16.48,17.27,7.15,4.08,15.62,6.12,25.4,6.12,7,0,12.83-.96,17.49-2.88,4.65-1.92,8.32-4.56,11.01-7.92,2.69-3.36,4.61-7.15,5.76-11.37h1.15v20.73h20.01v-50.95h-54.26v15.98Z"/>
        <path class="st1" d="M1306.7,969.08c-3.31-2.25-7.7-3.38-13.17-3.38-4.8,0-8.88.89-12.23,2.66-3.36,1.78-6.02,4.22-7.99,7.34-1.97,3.12-3.29,6.65-3.96,10.58h-1.3v-19.14h-20.01v72.11h21.59v-41.74c0-4.61.98-8.01,2.95-10.22,1.97-2.21,5.35-3.31,10.15-3.31,4.41,0,7.51.89,9.28,2.66,1.77,1.78,2.66,4.68,2.66,8.71v7.48h21.59v-11.95c0-4.7-.77-8.95-2.3-12.74-1.54-3.79-3.96-6.81-7.27-9.07Z"/>
        <path class="st1" d="M1384.06,970.3c-6.14-3.07-13.34-4.61-21.59-4.61s-15.33,1.54-21.52,4.61c-6.19,3.07-11.01,7.41-14.46,13.03-3.45,5.61-5.18,12.26-5.18,19.93s1.73,14.18,5.18,19.79c3.45,5.61,8.28,9.96,14.46,13.02,6.19,3.07,13.36,4.61,21.52,4.61s15.45-1.53,21.59-4.61c6.14-3.07,10.94-7.41,14.39-13.02,3.46-5.61,5.18-12.21,5.18-19.79s-1.73-14.32-5.18-19.93c-3.45-5.61-8.25-9.95-14.39-13.03ZM1377.8,1017.15c-2.93,2.93-8.04,4.39-15.33,4.39s-12.4-1.46-15.33-4.39c-2.93-2.93-4.39-7.56-4.39-13.89s1.46-11.13,4.39-14.1c2.93-2.97,8.03-4.46,15.33-4.46s12.4,1.49,15.33,4.46c2.93,2.97,4.39,7.68,4.39,14.1s-1.46,10.96-4.39,13.89Z"/>
        <polygon class="st1" points="1507.55 1000.09 1504.38 1022.55 1502.94 1022.55 1497.19 997.93 1486.39 967.13 1458.62 967.13 1447.68 997.93 1441.92 1022.55 1440.48 1022.55 1437.46 1000.09 1428.97 967.13 1406.66 967.13 1426.38 1039.24 1453.29 1039.24 1465.81 1004.55 1471.28 984.69 1472.86 984.69 1478.19 1004.55 1490.57 1039.24 1517.48 1039.24 1537.92 967.13 1515.9 967.13 1507.55 1000.09"/>
        <path class="st1" d="M1571.16,953.17h-21.59v13.96h-11.37v17.85h11.37v28.21c0,9.12,2.4,15.74,7.2,19.86,4.8,4.13,11.42,6.19,19.86,6.19h17.85v-19.43h-12.95c-3.74,0-6.4-.6-7.99-1.8-1.58-1.2-2.37-3.62-2.37-7.27v-25.76h23.32v-17.85h-23.32v-13.96Z"/>
        <path class="st1" d="M1670.61,969.58c-4.32-2.59-9.69-3.89-16.12-3.89s-11.25,1.1-15.33,3.31c-4.08,2.21-7.22,5.09-9.43,8.64-2.21,3.55-3.7,7.39-4.46,11.51h-1.15v-46.34h-21.59v96.43h21.59v-36.12c0-4.03.58-7.36,1.73-10,1.15-2.64,3.12-4.63,5.9-5.97,2.78-1.34,6.57-2.02,11.37-2.02,6.81,0,11.63,1.22,14.46,3.67,2.83,2.45,4.25,6.69,4.25,12.74v37.71h21.59v-44.18c0-5.56-1.06-10.55-3.17-14.97-2.11-4.41-5.33-7.92-9.64-10.51Z"/>
      </g>
      <g>
        <polygon class="st2" points="1140.54 1066.85 1134.5 1066.85 1134.5 1163.28 1140.54 1163.28 1156.09 1163.28 1216.1 1163.28 1216.1 1143.85 1156.09 1143.85 1156.09 1124.42 1213.95 1124.42 1213.95 1105.14 1156.09 1105.14 1156.09 1086.28 1216.1 1086.28 1216.1 1066.85 1156.09 1066.85 1140.54 1066.85"/>
        <path class="st2" d="M1292.82,1093.55c-4.32-2.54-9.74-3.81-16.26-3.81s-11.54,1.13-15.62,3.38c-4.08,2.26-7.22,5.18-9.43,8.78-2.21,3.6-3.65,7.41-4.32,11.44h-1.3v-22.16h-20.01v72.11h21.59v-36.41c0-6.14,1.37-10.63,4.1-13.46,2.74-2.83,7.56-4.25,14.46-4.25s11.27,1.27,13.96,3.81c2.69,2.54,4.03,6.74,4.03,12.59v37.71h21.59v-44.9c0-5.37-1.06-10.22-3.17-14.54-2.11-4.32-5.33-7.75-9.64-10.29Z"/>
        <path class="st2" d="M1377.73,1108.59h-1.15c-1.15-6.24-4.17-10.94-9.07-14.11-4.89-3.17-11.03-4.75-18.42-4.75s-13.38,1.37-18.57,4.1c-5.18,2.74-9.16,6.57-11.95,11.51-2.78,4.94-4.17,10.77-4.17,17.49s1.34,12.57,4.03,17.56c2.69,4.99,6.52,8.83,11.51,11.51,4.99,2.69,11.08,4.03,18.28,4.03,7.96,0,14.15-1.66,18.57-4.97,4.41-3.31,7.2-7.65,8.35-13.02h1.15v16.26c0,4.7-.53,8.28-1.58,10.72-1.06,2.45-2.9,4.1-5.54,4.97-2.64.86-6.26,1.29-10.87,1.29-4.89,0-8.64-.31-11.23-.93-2.59-.63-4.34-1.73-5.25-3.31-.91-1.58-1.37-3.67-1.37-6.26h-21.59c0,6.05,1.53,11.18,4.61,15.4,3.07,4.22,7.46,7.46,13.17,9.71,5.71,2.25,12.45,3.38,20.22,3.38,8.64,0,16-1.3,22.09-3.89,6.09-2.59,10.77-6.55,14.03-11.87,3.26-5.33,4.89-12.21,4.89-20.65v-61.6h-20.15v17.42ZM1371.18,1134.21c-3.41,2.11-8.56,3.17-15.47,3.17-4.51,0-8.2-.48-11.08-1.44-2.88-.96-5.02-2.49-6.4-4.61-1.39-2.11-2.09-4.94-2.09-8.49s.69-6.5,2.09-8.56c1.39-2.06,3.55-3.55,6.48-4.46,2.93-.91,6.69-1.37,11.3-1.37s8.25.46,11.23,1.37c2.97.91,5.23,2.35,6.76,4.32,1.53,1.97,2.3,4.58,2.3,7.84v1.58c0,4.99-1.71,8.54-5.11,10.65Z"/>
        <rect class="st2" x="1409.39" y="1066.85" width="21.59" height="16.98"/>
        <rect class="st2" x="1409.39" y="1091.17" width="21.59" height="72.11"/>
        <path class="st2" d="M1509.27,1093.55c-4.32-2.54-9.74-3.81-16.26-3.81s-11.54,1.13-15.62,3.38c-4.08,2.26-7.22,5.18-9.43,8.78-2.21,3.6-3.65,7.41-4.32,11.44h-1.3v-22.16h-20.01v72.11h21.59v-36.41c0-6.14,1.37-10.63,4.1-13.46,2.74-2.83,7.56-4.25,14.46-4.25s11.27,1.27,13.96,3.81c2.69,2.54,4.03,6.74,4.03,12.59v37.71h21.59v-44.9c0-5.37-1.06-10.22-3.17-14.54-2.11-4.32-5.33-7.75-9.64-10.29Z"/>
        <path class="st2" d="M1605.27,1105.64c-3.26-5.23-7.84-9.19-13.75-11.87-5.9-2.69-12.79-4.03-20.65-4.03s-14.95,1.54-20.94,4.61c-6,3.07-10.68,7.41-14.03,13.03-3.36,5.61-5.04,12.26-5.04,19.93,0,8.44,1.68,15.45,5.04,21.01,3.36,5.57,8.11,9.69,14.25,12.38,6.14,2.69,13.19,4.03,21.16,4.03s14.37-1.13,20.08-3.38c5.71-2.25,10.15-5.4,13.31-9.43,3.17-4.03,4.75-8.64,4.75-13.82v-1.58h-21.59v1.44c0,3.07-1.29,5.42-3.89,7.05-2.59,1.63-7.05,2.45-13.38,2.45-7.39,0-12.52-1.41-15.4-4.25-2.58-2.53-3.99-6.4-4.26-11.59h58.66c.19-1.25.34-2.4.43-3.45.09-1.06.14-2.21.14-3.45,0-7.48-1.63-13.84-4.89-19.07ZM1570.44,1106.57c6.71,0,11.56,1.2,14.54,3.6,2.65,2.14,4.11,5.5,4.4,10.07h-38.27c.52-4.11,1.87-7.26,4.07-9.43,2.88-2.83,7.96-4.25,15.26-4.25Z"/>
      </g>
    </g>
    <g>
      <path class="st2" d="M1033.26,818.77v52.48h-174.15c-9.48-17.49-21.87-32.45-37.12-44.74-3.39-2.73-6.89-5.32-10.5-7.74h221.77Z"/>
      <rect class="st1" x="869.68" y="960.33" width="163.59" height="52.47"/>
      <rect class="st2" x="869.68" y="1093.28" width="163.59" height="53.12"/>
      <path class="st2" d="M551.49,1112.87c.78,1.13,1.59,2.25,2.41,3.36-29.37,24.13-69.12,36.21-119.23,36.21h-118.09v-222.1h63.82v168.84h55.27c23.45,0,42.97-4.1,58.54-12.31,13.27-6.99,23.62-17.02,31.05-30.09,3.28,11.57,7.49,22.57,12.61,32.96,4.02,8.16,8.6,15.94,13.61,23.13Z"/>
      <path class="st2" d="M651.19,883.34c14.07-9.54,30.48-14.33,49.25-14.33,22.11,0,39.77,5.04,53.01,15.08,13.23,10.05,21.69,25.46,25.37,46.23h65.82c-5.7-38.19-21.1-67.41-46.23-87.69-25.12-20.27-57.62-30.4-97.49-30.4-31.48,0-59.29,7.28-83.41,21.86-10.02,6.06-19.15,13.17-27.35,21.34,14.31,17.23,24.86,37.78,31.58,61.52,7.61-14.25,17.43-25.46,29.43-33.62Z"/>
      <path class="st1" d="M316.58,810.81h140.25c21.82,0,43.5,4.52,63.15,14.02,33.19,16.05,60.79,45.05,72.98,87.75,4.18,14.65,6.02,29.87,6.02,45.11v33.74c0,21.41,6.45,42.48,19.22,59.67,40.7,54.82,116.5,37.68,157.63-34.85l-97.68,1.82v-54.08l168.02-1.82v184.23h-54.75v-59.14c-69.48,70.07-185.38,73.72-234.5-21.4-11.93-23.11-17.73-48.89-17.73-74.9v-39.32c0-11.58-1.76-23.13-5.75-34-9.16-24.98-27.51-43.56-61.49-51.25-9.65-2.18-19.55-3.1-29.44-3.1h-125.92s0-52.47,0-52.47Z"/>
    </g>
  </g>
</svg>
