<svg width="1368" height="347" viewBox="0 0 1368 347" fill="none" xmlns="http://www.w3.org/2000/svg">
  <path d="M0 120H145C208 120 259 171 259 234V285C259 322 229 347 192 347H0V120Z" fill="#26BFA9"/>
  <path d="M274 40H718V93H305L274 40Z" fill="#26BFA9"/>
  <path d="M304 43C364 -15 461 -14 522 46C553 77 573 117 581 160H459C454 131 440 107 417 88C380 56 319 55 282 88L304 43Z" fill="#26BFA9"/>
  <path d="M552 252H719V306H552V252Z" fill="#26BFA9"/>
  <path d="M833 27H935C983 27 1024 37 1057 58C1091 79 1107 108 1107 146C1107 184 1091 213 1057 234C1024 255 983 265 935 265H833V27ZM932 207C959 207 980 202 995 190C1010 179 1017 164 1017 146C1017 128 1010 114 995 102C980 90 959 85 932 85H920V207H932Z" fill="#26BFA9"/>
  <path d="M1182 88C1217 88 1245 97 1264 115C1284 133 1294 159 1294 194V265H1214V248C1202 261 1181 268 1151 268C1127 268 1108 262 1094 251C1080 239 1073 224 1073 205C1073 184 1081 168 1098 157C1115 145 1140 139 1174 139H1208C1205 113 1187 100 1156 100C1144 100 1132 102 1119 106C1106 111 1095 117 1087 124L1059 67C1073 58 1090 51 1111 46C1132 41 1155 38 1182 38V88ZM1177 218C1188 218 1198 215 1205 210C1213 205 1218 198 1221 189V178H1186C1162 178 1150 186 1150 202C1150 209 1152 214 1158 218C1163 222 1169 224 1177 224V218Z" fill="#26BFA9"/>
  <path d="M1334 95H1299V39H1334V0H1421V39H1474V95H1421V174C1421 184 1423 192 1428 197C1433 202 1440 205 1448 205C1458 205 1467 202 1476 196L1498 250C1489 256 1479 260 1467 263C1455 266 1441 268 1425 268C1391 268 1364 259 1347 243C1330 227 1321 203 1321 171V95H1334Z" fill="#26BFA9"/>
  <path d="M844 222H934C982 222 1023 232 1056 253C1090 274 1106 303 1106 341C1106 379 1090 408 1056 429C1023 450 982 460 934 460H844V222ZM931 402C958 402 979 397 994 385C1009 374 1016 359 1016 341C1016 323 1009 309 994 297C979 285 958 280 931 280H931V402Z" fill="#26BFA9" transform="translate(0 -111)"/>
  <path d="M1263 394V460H1122V222H1260V288H1204V311H1253V374H1204V394H1263Z" fill="#26BFA9" transform="translate(0 -111)"/>
  <path d="M1366 222V460H1294V222H1366Z" fill="#26BFA9" transform="translate(0 -111)"/>
  <path d="M1557 222C1592 222 1620 231 1639 249C1659 267 1669 293 1669 328V460H1590V342C1590 311 1578 296 1554 296C1540 296 1528 301 1518 312C1509 323 1504 339 1504 360V460H1425V222H1501V248C1511 238 1523 231 1538 226C1552 220 1566 222 1557 222Z" fill="#26BFA9" transform="translate(-304 -111)"/>
  <path d="M1864 222V416C1864 462 1852 496 1827 519C1803 542 1767 554 1720 554C1695 554 1671 551 1648 545C1625 539 1606 529 1593 517L1620 460C1629 468 1643 475 1660 480C1677 485 1694 488 1711 488C1736 488 1754 483 1765 473C1777 462 1783 447 1783 427V420C1766 438 1741 447 1707 447C1683 447 1661 442 1640 431C1620 420 1604 404 1592 383C1580 362 1574 338 1574 311C1574 284 1580 260 1592 239C1604 218 1620 202 1640 191C1661 180 1683 175 1707 175C1745 175 1773 187 1792 212V179H1864V222ZM1724 381C1742 381 1757 375 1769 364C1780 353 1786 339 1786 321C1786 303 1780 289 1769 278C1757 267 1742 261 1724 261C1706 261 1691 267 1679 278C1667 289 1662 303 1662 321C1662 339 1667 353 1679 364C1691 375 1706 381 1724 381Z" fill="#26BFA9" transform="translate(-304 -111)"/>
  <path d="M167 120H0V202H100C116 202 132 194 143 180L167 150V120Z" fill="white" fill-opacity="0"/>
</svg>
