<svg width="1368" height="347" viewBox="0 0 1368 347" fill="none" xmlns="http://www.w3.org/2000/svg">
  <rect width="1368" height="347" fill="white"/>
  <path d="M0 120H64V290H192L240 346H0V120Z" fill="#26BFA9"/>
  <path d="M274 40H718V93H305L274 40Z" fill="#26BFA9"/>
  <path d="M304 43C364 -15 461 -14 522 46C553 77 573 117 581 160H459C454 131 440 107 417 88C380 56 319 55 282 88L304 43Z" fill="#26BFA9"/>
  <path d="M552 252H719V306H552V252Z" fill="#26BFA9"/>
  <path d="M832 28H938C980 28 1013 38 1038 57C1062 76 1074 102 1074 136C1074 170 1062 196 1038 215C1013 234 980 244 938 244H832V28ZM926 181C947 181 963 177 975 168C987 160 993 149 993 136C993 123 987 113 975 104C963 96 947 92 926 92H918V181H926Z" fill="#26BFA9"/>
  <path d="M1167 89C1199 89 1224 97 1243 114C1261 132 1270 156 1270 188V244H1194V231C1183 242 1165 248 1139 248C1117 248 1100 243 1088 234C1075 224 1069 211 1069 195C1069 178 1076 164 1091 155C1106 146 1128 141 1157 141H1189C1186 119 1171 108 1144 108C1133 108 1121 110 1110 114C1098 118 1088 124 1080 131L1054 81C1066 73 1082 67 1101 62C1120 57 1142 54 1167 54V89ZM1164 207C1174 207 1182 205 1189 200C1196 195 1201 189 1203 181V171H1174C1153 171 1142 178 1142 191C1142 198 1144 202 1149 205C1153 208 1158 210 1164 210V207Z" fill="#26BFA9"/>
  <path d="M1351 93H1318V42H1351V0H1431V42H1480V93H1431V165C1431 174 1433 181 1438 186C1442 191 1449 193 1456 193C1464 193 1473 191 1480 186L1500 235C1492 240 1483 244 1472 246C1461 249 1449 250 1434 250C1403 250 1379 242 1363 227C1347 211 1339 189 1339 160V93H1351Z" fill="#26BFA9"/>
  <path d="M832 204H950C991 204 1024 214 1048 233C1072 252 1084 278 1084 311C1084 344 1072 370 1048 389C1024 408 991 418 950 418H832V204ZM938 355C959 355 975 351 987 343C999 335 1005 324 1005 311C1005 298 999 288 987 279C975 271 959 267 938 267H919V355H938Z" fill="#26BFA9"/>
  <path d="M1270 355V418H1117V204H1267V265H1195V286H1258V344H1195V355H1270Z" fill="#26BFA9"/>
</svg>
